<?xml version="1.0" encoding="UTF-8" standalone="no"?>
<!DOCTYPE svg PUBLIC "-//W3C//DTD SVG 1.1//EN"
"http://www.w3.org/Graphics/SVG/1.1/DTD/svg11.dtd">
<svg version="1.1" xmlns="http://www.w3.org/2000/svg" xmlns:xlink="http://www.w3.org/1999/xlink">
<defs>
<clipPath id="c0_3"><path d="M0.5,1210.5L0.5,0.5l935,0l0,1210Z" /></clipPath>
<style type="text/css"><![CDATA[
.g1_3{
fill: #FFFFFF;
}
]]></style>
</defs>
<g clip-path="url(#c0_3)">
<path d="M0,0L935,0l0,1210L0,1210L0,0Z" class="g1_3" />
</g>
<image x="333" y="69" width="327" height="59" xlink:href="img/1.png" />
<g clip-path="url(#c0_3)">
<path d="M110,589l636,0l0,31l-636,0l0,-31Z" class="g1_3" />
<path d="M110,631l637,0l0,30l-637,0l0,-30Z" class="g1_3" />
<path d="M110,672l679,0l0,30l-679,0l0,-30Z" class="g1_3" />
<path d="M110,713l689,0l0,31l-689,0l0,-31Z" class="g1_3" />
<path d="M110,754l692,0l0,31l-692,0l0,-31Z" class="g1_3" />
<path d="M110,795l697,0l0,31l-697,0l0,-31Z" class="g1_3" />
</g>
</svg>