<?xml version="1.0" encoding="UTF-8" standalone="no"?>
<!DOCTYPE svg PUBLIC "-//W3C//DTD SVG 1.1//EN"
"http://www.w3.org/Graphics/SVG/1.1/DTD/svg11.dtd">
<svg version="1.1" xmlns="http://www.w3.org/2000/svg" xmlns:xlink="http://www.w3.org/1999/xlink">
<defs>
<clipPath id="c0_3"><path d="M0.5,1210.5L0.5,0.5l935,0l0,1210Z" /></clipPath>
<style type="text/css"><![CDATA[
.g1_3{
fill: #FFFFFF;
}
]]></style>
</defs>
<g clip-path="url(#c0_3)">
<path d="M0,0L935,0l0,1210L0,1210L0,0Z" class="g1_3" />
</g>
<image x="333" y="69" width="327" height="59" xlink:href="img/1.png" />
<g clip-path="url(#c0_3)">
<path d="M110,150l705,0l0,30l-705,0l0,-30Z" class="g1_3" />
<path d="M110,191l681,0l0,30l-681,0l0,-30Z" class="g1_3" />
<path d="M110,232l621,0l0,31l-621,0l0,-31Z" class="g1_3" />
<path d="M110,273l634,0l0,31l-634,0l0,-31Z" class="g1_3" />
<path d="M110,314l660,0l0,31l-660,0l0,-31Z" class="g1_3" />
<path d="M110,356l276,0l0,30l-276,0l0,-30Z" class="g1_3" />
</g>
</svg>